<svg width="50" height="63" viewBox="0 0 50 63" fill="none" xmlns="http://www.w3.org/2000/svg">
<path d="M49.9519 18.0987C49.9519 18.0026 49.9519 17.9161 49.8751 17.82C49.7982 17.7239 49.8751 17.7431 49.8751 17.7047C49.8301 17.6004 49.7754 17.5007 49.7117 17.4067V17.3395C49.6252 17.2241 49.5387 17.1184 49.4426 17.0127L33.3245 0.971526C33.2303 0.869043 33.1238 0.778647 33.0073 0.702411H32.9401C32.8459 0.641729 32.7461 0.590233 32.6421 0.548632L32.5364 0.471742C32.4434 0.423276 32.347 0.381521 32.2481 0.346796C32.1073 0.336875 31.966 0.336875 31.8252 0.346796H9.35411C7.09133 0.34934 4.92195 1.24935 3.32192 2.84938C1.72189 4.44941 0.82188 6.61879 0.819336 8.88157L0.819336 53.8333C0.82188 56.0961 1.72189 58.2654 3.32192 59.8655C4.92195 61.4655 7.09133 62.3655 9.35411 62.3681H41.4652C43.728 62.3655 45.8974 61.4655 47.4974 59.8655C49.0974 58.2654 49.9975 56.0961 50 53.8333V18.512C49.9983 18.373 49.9822 18.2345 49.9519 18.0987ZM33.9396 7.52638L42.782 16.3591H35.093C34.8015 16.3591 34.5218 16.244 34.3148 16.0388C34.1078 15.8336 33.9902 15.5549 33.9877 15.2634L33.9396 7.52638ZM41.4652 58.1007H9.35411C8.21953 58.0982 7.13155 57.649 6.32569 56.8504C5.51982 56.0517 5.06091 54.9678 5.04828 53.8333V8.88157C5.05082 7.74037 5.50528 6.64664 6.31223 5.83969C7.11918 5.03274 8.21291 4.57828 9.35411 4.57574H29.7107V15.3019C29.7132 16.7149 30.2764 18.0692 31.2764 19.0675C32.2765 20.0658 33.6319 20.6265 35.0449 20.6265H45.7711V53.8333C45.7685 54.9745 45.3141 56.0682 44.5071 56.8752C43.7002 57.6821 42.6064 58.1366 41.4652 58.1391V58.1007Z" fill="url(#paint0_linear_573_778)"/>
<path d="M15.7746 23.8366H18.9848C19.5456 23.8366 20.0834 23.6138 20.4799 23.2173C20.8765 22.8208 21.0992 22.2829 21.0992 21.7221C21.0992 21.1613 20.8765 20.6235 20.4799 20.227C20.0834 19.8304 19.5456 19.6077 18.9848 19.6077H15.7746C15.2138 19.6077 14.676 19.8304 14.2795 20.227C13.8829 20.6235 13.6602 21.1613 13.6602 21.7221C13.6602 22.2829 13.8829 22.8208 14.2795 23.2173C14.676 23.6138 15.2138 23.8366 15.7746 23.8366Z" fill="#29ABE2"/>
<path d="M35.0455 32.4482H15.8231C15.2857 32.4844 14.7821 32.7234 14.4143 33.1169C14.0464 33.5103 13.8418 34.0288 13.8418 34.5675C13.8418 35.1061 14.0464 35.6246 14.4143 36.018C14.7821 36.4115 15.2857 36.6505 15.8231 36.6867H35.0455C35.5829 36.6505 36.0865 36.4115 36.4544 36.018C36.8222 35.6246 37.0268 35.1061 37.0268 34.5675C37.0268 34.0288 36.8222 33.5103 36.4544 33.1169C36.0865 32.7234 35.5829 32.4844 35.0455 32.4482Z" fill="#158ECF"/>
<path d="M35.0445 45.2986H15.822C15.2612 45.2986 14.7234 45.5214 14.3268 45.9179C13.9303 46.3144 13.7075 46.8523 13.7075 47.4131C13.7075 47.9738 13.9303 48.5117 14.3268 48.9082C14.7234 49.3048 15.2612 49.5275 15.822 49.5275H35.0445C35.3221 49.5275 35.5971 49.4728 35.8536 49.3666C36.1102 49.2603 36.3433 49.1046 36.5396 48.9082C36.736 48.7119 36.8917 48.4788 36.998 48.2222C37.1042 47.9657 37.1589 47.6907 37.1589 47.4131C37.1589 47.1354 37.1042 46.8604 36.998 46.6039C36.8917 46.3473 36.736 46.1142 36.5396 45.9179C36.3433 45.7215 36.1102 45.5658 35.8536 45.4595C35.5971 45.3533 35.3221 45.2986 35.0445 45.2986Z" fill="#0071BC"/>
<defs>
<linearGradient id="paint0_linear_573_778" x1="25.4049" y1="0.346796" x2="25.4049" y2="62.3681" gradientUnits="userSpaceOnUse">
<stop stop-color="#29ABE2"/>
<stop offset="1" stop-color="#0071BC"/>
</linearGradient>
</defs>
</svg>
