<svg xmlns="http://www.w3.org/2000/svg" xmlns:xlink="http://www.w3.org/1999/xlink" viewBox="0 0 51.17 64.53"><defs><style>.cls-1{fill:url(#Dégradé_sans_nom_3);}.cls-2{fill:#29abe2;}.cls-3{fill:#158ecf;}.cls-4{fill:#0071bc;}</style><linearGradient id="Dégradé_sans_nom_3" x1="25.58" x2="25.58" y2="64.53" gradientUnits="userSpaceOnUse"><stop offset="0" stop-color="#29abe2"/><stop offset="1" stop-color="#0071bc"/></linearGradient></defs><g id="Calque_2" data-name="Calque 2"><g id="Calque_1-2" data-name="Calque 1"><path class="cls-1" d="M51.12,18.47c0-.1,0-.19-.08-.29s0-.08,0-.12a1.87,1.87,0,0,0-.17-.31l0-.07c-.09-.12-.18-.23-.28-.34L33.82.65a1.75,1.75,0,0,0-.33-.28l-.07,0a1.82,1.82,0,0,0-.31-.16L33,.13A2.29,2.29,0,0,0,32.7,0a3.13,3.13,0,0,0-.44,0H8.88A8.89,8.89,0,0,0,0,8.88V55.65a8.89,8.89,0,0,0,8.88,8.88H42.29a8.89,8.89,0,0,0,8.88-8.88V18.9A2.1,2.1,0,0,0,51.12,18.47Zm-16.66-11,9.2,9.19h-8a1.15,1.15,0,0,1-1.15-1.14Zm7.83,52.62H8.88A4.49,4.49,0,0,1,4.4,55.65V8.88A4.49,4.49,0,0,1,8.88,4.4H30.06V15.56a5.55,5.55,0,0,0,5.55,5.54H46.77V55.65A4.49,4.49,0,0,1,42.29,60.13Z"/><path class="cls-2" d="M15.56,24.44H18.9a2.2,2.2,0,1,0,0-4.4H15.56a2.2,2.2,0,1,0,0,4.4Z"/><path class="cls-3" d="M35.61,33.4h-20a2.21,2.21,0,0,0,0,4.41h20a2.21,2.21,0,0,0,0-4.41Z"/><path class="cls-4" d="M35.61,46.77h-20a2.2,2.2,0,0,0,0,4.4h20a2.2,2.2,0,1,0,0-4.4Z"/></g></g></svg>