<svg width="91" height="91" viewBox="0 0 91 91" fill="none" xmlns="http://www.w3.org/2000/svg">
<rect x="0.113281" y="0.157593" width="90.2301" height="90.1818" rx="45.0909" fill="#FBFFFD"/>
<path d="M60.6632 37.5362C59.3344 37.7996 58.018 38.088 56.7141 38.4015V34.4386H52.1188V39.6792C50.746 40.0945 49.3856 40.5473 48.0376 41.0376V30.8276L54.3562 24.2257V24.194H67.0593C69.1483 26.4129 71.2353 28.6298 73.3204 30.8449V36.0191C71.3272 36.1085 69.1961 36.2729 66.9444 36.5412C64.6927 36.8094 62.6076 37.1555 60.6632 37.5362Z" fill="#B27B56"/>
<path d="M60.679 30.8083V37.5296C59.3485 37.7935 58.0305 38.0825 56.725 38.3965V34.4261H52.1239V39.6766C50.7494 40.0927 49.3872 40.5464 48.0376 41.0376V30.8083L54.3641 24.194L60.679 30.8083Z" fill="#E7A977"/>
<path d="M36.7334 65.3925C39.0522 63.6306 41.4809 62.0249 44.004 60.5857C44.7206 60.1661 45.4457 59.7696 46.1821 59.3818C48.8856 57.9614 51.6789 56.7268 54.5433 55.6863C55.5006 55.3333 56.4683 55.0053 57.4464 54.7024C63.9734 52.6674 70.7604 51.6356 77.5845 51.6407C78.2898 51.6407 79.0007 51.6407 79.6946 51.6783C79.0007 55.2885 77.7583 58.7656 76.0126 61.9834C71.8 62.0929 67.6112 62.6663 63.519 63.6937C62.556 63.9339 61.6043 64.2031 60.6583 64.4925C57.833 65.3609 55.0767 66.4483 52.4133 67.7452C51.6826 68.0925 50.9631 68.4658 50.2579 68.8507C47.7454 70.202 45.3333 71.7399 43.041 73.452C42.5029 73.8513 41.9817 74.2565 41.4662 74.6703C39.7299 76.0575 38.0722 77.5445 36.5011 79.124C33.0188 78.1788 29.7026 76.6829 26.6728 74.6905C29.2787 71.7598 32.1211 69.0581 35.1699 66.6137C35.6769 66.197 36.2037 65.786 36.7334 65.3925ZM67.6826 72.2018C66.9264 72.8413 66.139 73.452 65.3261 74.025C62.9267 75.7253 60.3256 77.1071 57.5852 78.1372C56.8299 78.4266 56.0671 78.6841 55.2967 78.9099C52.4846 79.7532 49.5788 80.2268 46.6495 80.3192C46.2699 80.3192 45.8932 80.3394 45.5165 80.3394C45.1766 80.3394 44.8367 80.3394 44.4969 80.3192C42.7342 80.2726 40.9777 80.0879 39.2428 79.7664C40.3531 78.7044 41.5087 77.6915 42.6898 76.7394C43.2053 76.314 43.735 75.9031 44.2703 75.5037C46.5545 73.7809 48.9654 72.2407 51.4815 70.8967C52.1896 70.5176 52.8977 70.15 53.6369 69.8028C56.2918 68.5185 59.0433 67.454 61.8649 66.6195C62.8024 66.3301 63.7541 66.087 64.7171 65.8526C67.9474 65.0812 71.2383 64.6037 74.5511 64.4259C72.645 67.3462 70.331 69.9659 67.6826 72.2018V72.2018ZM24.3673 58.2764C24.9054 57.8047 25.4407 57.3474 25.9874 56.8989C28.3663 54.9244 30.8523 53.0887 33.4337 51.4005C34.1701 50.9114 34.9206 50.4397 35.6769 49.9854C38.4451 48.2927 41.31 46.7706 44.2561 45.4275C45.2389 44.976 46.2388 44.5593 47.2414 44.1397C50.1342 42.958 53.0914 41.9483 56.0982 41.1156C56.1122 41.1192 56.1268 41.1192 56.1407 41.1156C56.5401 41.0085 56.9423 40.8985 57.3445 40.7943C58.6304 40.4625 59.9285 40.1606 61.239 39.8886C61.2557 39.8841 61.2732 39.8841 61.2899 39.8886C65.3888 39.0397 69.546 38.5172 73.724 38.3258C75.0014 38.2622 76.293 38.2303 77.5845 38.2303C78.3209 38.2303 79.0517 38.2303 79.7768 38.2535C80.157 40.4031 80.3466 42.5833 80.3433 44.7677C80.344 46.1215 80.2684 47.4742 80.1167 48.8191C79.267 48.7815 78.4172 48.767 77.5675 48.767C70.0657 48.7479 62.608 49.9385 55.4694 52.2947C54.4781 52.6188 53.5094 52.9661 52.5464 53.3307C49.6662 54.4286 46.859 55.7172 44.1428 57.1883C43.3988 57.5876 42.6662 57.9995 41.9449 58.424C39.42 59.9123 36.9854 61.5552 34.6544 63.3436C34.12 63.7487 33.5913 64.1674 33.0683 64.5995C29.9294 67.1467 27.0064 69.9599 24.3304 73.0092C21.5807 70.858 19.1565 68.3041 17.1362 65.4301C19.402 62.8975 21.8168 60.5085 24.3673 58.2764V58.2764Z" fill="#C7CB85"/>
<path d="M14.9588 63.4958C13.2444 60.4824 11.9613 57.2229 11.1502 53.8208C14.5552 54.5984 17.865 55.7768 21.0164 57.3333C18.8996 59.2799 16.8779 61.3367 14.9588 63.4958ZM22.6495 55.868C18.8567 53.9157 14.8374 52.4867 10.6925 51.6169C10.3069 49.4282 10.1131 47.2073 10.1133 44.9817C10.1133 44.1546 10.1387 43.3274 10.1952 42.512C17.2314 43.689 23.9944 46.2342 30.134 50.0157C27.5375 51.8202 25.0389 53.774 22.6495 55.868V55.868ZM41.0145 43.6228C38.0503 45.0717 35.1701 46.7013 32.3886 48.5032C25.6811 44.1823 18.2218 41.2927 10.441 40.0009C10.8331 36.9826 11.5927 34.029 12.7013 31.2122C22.9155 33.053 32.596 37.2968 41.0117 43.6228H41.0145Z" fill="#7EA172"/>
</svg>
